<svg width="336" height="93" viewBox="0 0 336 93" fill="none" xmlns="http://www.w3.org/2000/svg">
<path d="M38.0236 32.664C37.8529 31.512 37.4689 30.4667 36.8716 29.528C36.2742 28.5467 35.5276 27.6933 34.6316 26.968C33.7356 26.2427 32.7116 25.688 31.5596 25.304C30.4502 24.8773 29.2769 24.664 28.0396 24.664C25.7782 24.664 23.8582 25.112 22.2796 26.008C20.7009 26.8613 19.4209 28.0347 18.4396 29.528C17.4582 30.9787 16.7329 32.6427 16.2636 34.52C15.8369 36.3973 15.6236 38.3387 15.6236 40.344C15.6236 42.264 15.8369 44.1413 16.2636 45.976C16.7329 47.768 17.4582 49.3893 18.4396 50.84C19.4209 52.2907 20.7009 53.464 22.2796 54.36C23.8582 55.2133 25.7782 55.64 28.0396 55.64C31.1116 55.64 33.5009 54.7013 35.2076 52.824C36.9569 50.9467 38.0236 48.472 38.4076 45.4H48.1356C47.8796 48.2587 47.2182 50.84 46.1516 53.144C45.0849 55.448 43.6769 57.4107 41.9276 59.032C40.1782 60.6533 38.1302 61.8907 35.7836 62.744C33.4369 63.5973 30.8556 64.024 28.0396 64.024C24.5409 64.024 21.3836 63.4267 18.5676 62.232C15.7942 60.9947 13.4476 59.3093 11.5276 57.176C9.60756 55.0427 8.13555 52.5467 7.11155 49.688C6.08755 46.7867 5.57555 43.672 5.57555 40.344C5.57555 36.9307 6.08755 33.7733 7.11155 30.872C8.13555 27.928 9.60756 25.368 11.5276 23.192C13.4476 21.016 15.7942 19.3093 18.5676 18.072C21.3836 16.8347 24.5409 16.216 28.0396 16.216C30.5569 16.216 32.9249 16.5787 35.1436 17.304C37.4049 18.0293 39.4102 19.096 41.1596 20.504C42.9516 21.8693 44.4236 23.576 45.5756 25.624C46.7276 27.672 47.4529 30.0187 47.7516 32.664H38.0236ZM50.8371 17.304H59.9251V34.52H60.1171C61.2691 32.6 62.7411 31.2133 64.5331 30.36C66.3251 29.464 68.0744 29.016 69.7811 29.016C72.2131 29.016 74.1971 29.3573 75.7331 30.04C77.3117 30.68 78.5491 31.5973 79.4451 32.792C80.3411 33.944 80.9597 35.3733 81.3011 37.08C81.6851 38.744 81.8771 40.6 81.8771 42.648V63H72.7891V44.312C72.7891 41.5813 72.3624 39.5547 71.5091 38.232C70.6557 36.8667 69.1411 36.184 66.9651 36.184C64.4904 36.184 62.6984 36.9307 61.5891 38.424C60.4797 39.8747 59.9251 42.2853 59.9251 45.656V63H50.8371V17.304ZM85.1906 40.088C85.3186 37.9547 85.8519 36.184 86.7906 34.776C87.7292 33.368 88.9239 32.2373 90.3746 31.384C91.8252 30.5307 93.4466 29.9333 95.2386 29.592C97.0732 29.208 98.9079 29.016 100.743 29.016C102.407 29.016 104.092 29.144 105.799 29.4C107.505 29.6133 109.063 30.0613 110.471 30.744C111.879 31.4267 113.031 32.3867 113.927 33.624C114.823 34.8187 115.271 36.4187 115.271 38.424V55.64C115.271 57.1333 115.356 58.5627 115.527 59.928C115.697 61.2933 115.996 62.3173 116.423 63H107.207C107.036 62.488 106.887 61.976 106.759 61.464C106.673 60.9093 106.609 60.3547 106.567 59.8C105.116 61.2933 103.409 62.3387 101.447 62.936C99.4839 63.5333 97.4786 63.832 95.4306 63.832C93.8519 63.832 92.3799 63.64 91.0146 63.256C89.6492 62.872 88.4546 62.2747 87.4306 61.464C86.4066 60.6533 85.5959 59.6293 84.9986 58.392C84.4439 57.1547 84.1666 55.6827 84.1666 53.976C84.1666 52.0987 84.4866 50.5627 85.1266 49.368C85.8092 48.1307 86.6626 47.1493 87.6866 46.424C88.7532 45.6987 89.9479 45.1653 91.2706 44.824C92.6359 44.44 94.0012 44.1413 95.3666 43.928C96.7319 43.7147 98.0759 43.544 99.3986 43.416C100.721 43.288 101.895 43.096 102.919 42.84C103.943 42.584 104.753 42.2213 105.351 41.752C105.948 41.24 106.225 40.5147 106.183 39.576C106.183 38.5947 106.012 37.8267 105.671 37.272C105.372 36.6747 104.945 36.2267 104.391 35.928C103.879 35.5867 103.26 35.3733 102.535 35.288C101.852 35.16 101.105 35.096 100.295 35.096C98.5026 35.096 97.0946 35.48 96.0706 36.248C95.0466 37.016 94.4492 38.296 94.2786 40.088H85.1906ZM106.183 46.808C105.799 47.1493 105.308 47.4267 104.711 47.64C104.156 47.8107 103.537 47.96 102.855 48.088C102.215 48.216 101.532 48.3227 100.807 48.408C100.081 48.4933 99.3559 48.6 98.6306 48.728C97.9479 48.856 97.2652 49.0267 96.5826 49.24C95.9426 49.4533 95.3666 49.752 94.8546 50.136C94.3852 50.4773 94.0012 50.9253 93.7026 51.48C93.4039 52.0347 93.2546 52.7387 93.2546 53.592C93.2546 54.4027 93.4039 55.0853 93.7026 55.64C94.0012 56.1947 94.4066 56.6427 94.9186 56.984C95.4306 57.2827 96.0279 57.496 96.7106 57.624C97.3932 57.752 98.0972 57.816 98.8226 57.816C100.615 57.816 102.001 57.5173 102.983 56.92C103.964 56.3227 104.689 55.6187 105.159 54.808C105.628 53.9547 105.905 53.1013 105.991 52.248C106.119 51.3947 106.183 50.712 106.183 50.2V46.808ZM130.645 29.912H137.301V35.992H130.645V52.376C130.645 53.912 130.901 54.936 131.413 55.448C131.925 55.96 132.949 56.216 134.485 56.216C134.997 56.216 135.487 56.1947 135.957 56.152C136.426 56.1093 136.874 56.0453 137.301 55.96V63C136.533 63.128 135.679 63.2133 134.741 63.256C133.802 63.2987 132.885 63.32 131.989 63.32C130.581 63.32 129.237 63.2133 127.957 63C126.719 62.8293 125.61 62.4667 124.629 61.912C123.69 61.3573 122.943 60.568 122.389 59.544C121.834 58.52 121.557 57.176 121.557 55.512V35.992H116.053V29.912H121.557V19.992H130.645V29.912ZM138.041 40.088C138.169 37.9547 138.702 36.184 139.641 34.776C140.579 33.368 141.774 32.2373 143.225 31.384C144.675 30.5307 146.297 29.9333 148.089 29.592C149.923 29.208 151.758 29.016 153.593 29.016C155.257 29.016 156.942 29.144 158.649 29.4C160.355 29.6133 161.913 30.0613 163.321 30.744C164.729 31.4267 165.881 32.3867 166.777 33.624C167.673 34.8187 168.121 36.4187 168.121 38.424V55.64C168.121 57.1333 168.206 58.5627 168.377 59.928C168.547 61.2933 168.846 62.3173 169.273 63H160.057C159.886 62.488 159.737 61.976 159.609 61.464C159.523 60.9093 159.459 60.3547 159.417 59.8C157.966 61.2933 156.259 62.3387 154.297 62.936C152.334 63.5333 150.329 63.832 148.281 63.832C146.702 63.832 145.23 63.64 143.865 63.256C142.499 62.872 141.305 62.2747 140.281 61.464C139.257 60.6533 138.446 59.6293 137.849 58.392C137.294 57.1547 137.017 55.6827 137.017 53.976C137.017 52.0987 137.337 50.5627 137.977 49.368C138.659 48.1307 139.513 47.1493 140.537 46.424C141.603 45.6987 142.798 45.1653 144.121 44.824C145.486 44.44 146.851 44.1413 148.217 43.928C149.582 43.7147 150.926 43.544 152.249 43.416C153.571 43.288 154.745 43.096 155.769 42.84C156.793 42.584 157.603 42.2213 158.201 41.752C158.798 41.24 159.075 40.5147 159.033 39.576C159.033 38.5947 158.862 37.8267 158.521 37.272C158.222 36.6747 157.795 36.2267 157.241 35.928C156.729 35.5867 156.11 35.3733 155.385 35.288C154.702 35.16 153.955 35.096 153.145 35.096C151.353 35.096 149.945 35.48 148.921 36.248C147.897 37.016 147.299 38.296 147.129 40.088H138.041ZM159.033 46.808C158.649 47.1493 158.158 47.4267 157.561 47.64C157.006 47.8107 156.387 47.96 155.705 48.088C155.065 48.216 154.382 48.3227 153.657 48.408C152.931 48.4933 152.206 48.6 151.481 48.728C150.798 48.856 150.115 49.0267 149.433 49.24C148.793 49.4533 148.217 49.752 147.705 50.136C147.235 50.4773 146.851 50.9253 146.553 51.48C146.254 52.0347 146.105 52.7387 146.105 53.592C146.105 54.4027 146.254 55.0853 146.553 55.64C146.851 56.1947 147.257 56.6427 147.769 56.984C148.281 57.2827 148.878 57.496 149.561 57.624C150.243 57.752 150.947 57.816 151.673 57.816C153.465 57.816 154.851 57.5173 155.833 56.92C156.814 56.3227 157.539 55.6187 158.009 54.808C158.478 53.9547 158.755 53.1013 158.841 52.248C158.969 51.3947 159.033 50.712 159.033 50.2V46.808ZM179.015 52.248C179.015 53.2293 179.207 54.0827 179.591 54.808C180.017 55.4907 180.551 56.0667 181.191 56.536C181.831 56.9627 182.556 57.2827 183.367 57.496C184.22 57.7093 185.095 57.816 185.991 57.816C186.631 57.816 187.292 57.752 187.975 57.624C188.7 57.4533 189.34 57.2187 189.895 56.92C190.492 56.5787 190.983 56.152 191.367 55.64C191.751 55.0853 191.943 54.4027 191.943 53.592C191.943 52.2267 191.025 51.2027 189.191 50.52C187.399 49.8373 184.881 49.1547 181.639 48.472C180.316 48.1733 179.015 47.832 177.735 47.448C176.497 47.0213 175.388 46.488 174.407 45.848C173.425 45.1653 172.636 44.3333 172.039 43.352C171.441 42.328 171.143 41.0907 171.143 39.64C171.143 37.5067 171.548 35.7573 172.359 34.392C173.212 33.0267 174.321 31.96 175.687 31.192C177.052 30.3813 178.588 29.8267 180.295 29.528C182.001 29.1867 183.751 29.016 185.543 29.016C187.335 29.016 189.063 29.1867 190.727 29.528C192.433 29.8693 193.948 30.4453 195.271 31.256C196.593 32.0667 197.681 33.1547 198.535 34.52C199.431 35.8427 199.964 37.528 200.135 39.576H191.495C191.367 37.8267 190.705 36.6533 189.511 36.056C188.316 35.416 186.908 35.096 185.287 35.096C184.775 35.096 184.22 35.1387 183.623 35.224C183.025 35.2667 182.471 35.3947 181.959 35.608C181.489 35.8213 181.084 36.1413 180.743 36.568C180.401 36.952 180.231 37.4853 180.231 38.168C180.231 38.9787 180.529 39.64 181.127 40.152C181.724 40.664 182.492 41.0907 183.431 41.432C184.412 41.7307 185.521 42.008 186.759 42.264C187.996 42.52 189.255 42.7973 190.535 43.096C191.857 43.3947 193.137 43.7573 194.375 44.184C195.655 44.6107 196.785 45.1867 197.767 45.912C198.748 46.5947 199.537 47.4693 200.135 48.536C200.732 49.56 201.031 50.84 201.031 52.376C201.031 54.552 200.583 56.3867 199.687 57.88C198.833 59.3307 197.703 60.504 196.295 61.4C194.887 62.296 193.265 62.9147 191.431 63.256C189.639 63.64 187.804 63.832 185.927 63.832C184.007 63.832 182.129 63.64 180.295 63.256C178.46 62.872 176.817 62.232 175.367 61.336C173.959 60.44 172.785 59.2667 171.847 57.816C170.951 56.3227 170.46 54.4667 170.375 52.248H179.015ZM214.67 29.912H221.326V35.992H214.67V52.376C214.67 53.912 214.926 54.936 215.438 55.448C215.95 55.96 216.974 56.216 218.51 56.216C219.022 56.216 219.512 56.1947 219.982 56.152C220.451 56.1093 220.899 56.0453 221.326 55.96V63C220.558 63.128 219.704 63.2133 218.766 63.256C217.827 63.2987 216.91 63.32 216.014 63.32C214.606 63.32 213.262 63.2133 211.982 63C210.744 62.8293 209.635 62.4667 208.654 61.912C207.715 61.3573 206.968 60.568 206.414 59.544C205.859 58.52 205.582 57.176 205.582 55.512V35.992H200.078V29.912H205.582V19.992H214.67V29.912ZM231.794 24.792H222.706V17.304H231.794V24.792ZM222.706 29.912H231.794V63H222.706V29.912ZM242.79 52.248C242.79 53.2293 242.982 54.0827 243.366 54.808C243.792 55.4907 244.326 56.0667 244.966 56.536C245.606 56.9627 246.331 57.2827 247.142 57.496C247.995 57.7093 248.87 57.816 249.766 57.816C250.406 57.816 251.067 57.752 251.75 57.624C252.475 57.4533 253.115 57.2187 253.67 56.92C254.267 56.5787 254.758 56.152 255.142 55.64C255.526 55.0853 255.718 54.4027 255.718 53.592C255.718 52.2267 254.8 51.2027 252.966 50.52C251.174 49.8373 248.656 49.1547 245.414 48.472C244.091 48.1733 242.79 47.832 241.51 47.448C240.272 47.0213 239.163 46.488 238.182 45.848C237.2 45.1653 236.411 44.3333 235.814 43.352C235.216 42.328 234.918 41.0907 234.918 39.64C234.918 37.5067 235.323 35.7573 236.134 34.392C236.987 33.0267 238.096 31.96 239.462 31.192C240.827 30.3813 242.363 29.8267 244.07 29.528C245.776 29.1867 247.526 29.016 249.318 29.016C251.11 29.016 252.838 29.1867 254.502 29.528C256.208 29.8693 257.723 30.4453 259.046 31.256C260.368 32.0667 261.456 33.1547 262.31 34.52C263.206 35.8427 263.739 37.528 263.91 39.576H255.27C255.142 37.8267 254.48 36.6533 253.286 36.056C252.091 35.416 250.683 35.096 249.062 35.096C248.55 35.096 247.995 35.1387 247.398 35.224C246.8 35.2667 246.246 35.3947 245.734 35.608C245.264 35.8213 244.859 36.1413 244.518 36.568C244.176 36.952 244.006 37.4853 244.006 38.168C244.006 38.9787 244.304 39.64 244.902 40.152C245.499 40.664 246.267 41.0907 247.206 41.432C248.187 41.7307 249.296 42.008 250.534 42.264C251.771 42.52 253.03 42.7973 254.31 43.096C255.632 43.3947 256.912 43.7573 258.15 44.184C259.43 44.6107 260.56 45.1867 261.542 45.912C262.523 46.5947 263.312 47.4693 263.91 48.536C264.507 49.56 264.806 50.84 264.806 52.376C264.806 54.552 264.358 56.3867 263.462 57.88C262.608 59.3307 261.478 60.504 260.07 61.4C258.662 62.296 257.04 62.9147 255.206 63.256C253.414 63.64 251.579 63.832 249.702 63.832C247.782 63.832 245.904 63.64 244.07 63.256C242.235 62.872 240.592 62.232 239.142 61.336C237.734 60.44 236.56 59.2667 235.622 57.816C234.726 56.3227 234.235 54.4667 234.15 52.248H242.79ZM289.453 41.56C288.855 37.7627 286.615 35.864 282.733 35.864C281.282 35.864 280.066 36.2053 279.085 36.888C278.103 37.528 277.293 38.3813 276.653 39.448C276.055 40.472 275.629 41.624 275.373 42.904C275.117 44.1413 274.989 45.3787 274.989 46.616C274.989 47.8107 275.117 49.0267 275.373 50.264C275.629 51.5013 276.034 52.632 276.589 53.656C277.186 54.6373 277.975 55.448 278.957 56.088C279.938 56.728 281.133 57.048 282.541 57.048C284.717 57.048 286.381 56.4507 287.533 55.256C288.727 54.0187 289.474 52.376 289.773 50.328H298.541C297.943 54.7227 296.237 58.072 293.421 60.376C290.605 62.68 286.999 63.832 282.605 63.832C280.13 63.832 277.847 63.4267 275.757 62.616C273.709 61.7627 271.959 60.5893 270.509 59.096C269.058 57.6027 267.927 55.832 267.117 53.784C266.306 51.6933 265.901 49.4107 265.901 46.936C265.901 44.376 266.263 42.008 266.989 39.832C267.757 37.6133 268.866 35.7147 270.317 34.136C271.767 32.5147 273.538 31.256 275.629 30.36C277.719 29.464 280.109 29.016 282.797 29.016C284.759 29.016 286.637 29.272 288.429 29.784C290.263 30.296 291.885 31.0853 293.293 32.152C294.743 33.176 295.917 34.4773 296.813 36.056C297.709 37.592 298.221 39.4267 298.349 41.56H289.453ZM300.475 17.304H309.563V34.52H309.755C310.907 32.6 312.379 31.2133 314.171 30.36C315.963 29.464 317.712 29.016 319.419 29.016C321.851 29.016 323.835 29.3573 325.371 30.04C326.949 30.68 328.187 31.5973 329.083 32.792C329.979 33.944 330.597 35.3733 330.939 37.08C331.323 38.744 331.515 40.6 331.515 42.648V63H322.427V44.312C322.427 41.5813 322 39.5547 321.147 38.232C320.293 36.8667 318.779 36.184 316.603 36.184C314.128 36.184 312.336 36.9307 311.227 38.424C310.117 39.8747 309.563 42.2853 309.563 45.656V63H300.475V17.304Z" fill="#52B788"/>
<path d="M176.44 79.408C176.488 78.688 176.64 78.064 176.896 77.536C177.152 77.008 177.496 76.576 177.928 76.24C178.376 75.904 178.896 75.656 179.488 75.496C180.08 75.336 180.736 75.256 181.456 75.256C182 75.256 182.544 75.312 183.088 75.424C183.632 75.52 184.12 75.712 184.552 76C184.984 76.288 185.336 76.696 185.608 77.224C185.88 77.736 186.016 78.408 186.016 79.24V85.816C186.016 86.424 186.312 86.728 186.904 86.728C187.08 86.728 187.24 86.696 187.384 86.632V87.904C187.208 87.936 187.048 87.96 186.904 87.976C186.776 87.992 186.608 88 186.4 88C186.016 88 185.704 87.952 185.464 87.856C185.24 87.744 185.064 87.592 184.936 87.4C184.808 87.208 184.72 86.984 184.672 86.728C184.64 86.456 184.624 86.16 184.624 85.84H184.576C184.304 86.24 184.024 86.6 183.736 86.92C183.464 87.224 183.152 87.48 182.8 87.688C182.464 87.896 182.072 88.056 181.624 88.168C181.192 88.28 180.672 88.336 180.064 88.336C179.488 88.336 178.944 88.264 178.432 88.12C177.936 87.992 177.496 87.784 177.112 87.496C176.744 87.192 176.448 86.816 176.224 86.368C176.016 85.904 175.912 85.36 175.912 84.736C175.912 83.872 176.104 83.2 176.488 82.72C176.872 82.224 177.376 81.848 178 81.592C178.64 81.336 179.352 81.16 180.136 81.064C180.936 80.952 181.744 80.848 182.56 80.752C182.88 80.72 183.16 80.68 183.4 80.632C183.64 80.584 183.84 80.504 184 80.392C184.16 80.264 184.28 80.096 184.36 79.888C184.456 79.68 184.504 79.408 184.504 79.072C184.504 78.56 184.416 78.144 184.24 77.824C184.08 77.488 183.848 77.224 183.544 77.032C183.256 76.84 182.912 76.712 182.512 76.648C182.128 76.568 181.712 76.528 181.264 76.528C180.304 76.528 179.52 76.76 178.912 77.224C178.304 77.672 177.984 78.4 177.952 79.408H176.44ZM184.504 81.232H184.456C184.36 81.408 184.176 81.536 183.904 81.616C183.632 81.696 183.392 81.752 183.184 81.784C182.544 81.896 181.88 82 181.192 82.096C180.52 82.176 179.904 82.304 179.344 82.48C178.784 82.656 178.32 82.912 177.952 83.248C177.6 83.568 177.424 84.032 177.424 84.64C177.424 85.024 177.496 85.368 177.64 85.672C177.8 85.96 178.008 86.216 178.264 86.44C178.52 86.648 178.816 86.808 179.152 86.92C179.488 87.032 179.832 87.088 180.184 87.088C180.76 87.088 181.312 87 181.84 86.824C182.368 86.648 182.824 86.392 183.208 86.056C183.608 85.72 183.92 85.312 184.144 84.832C184.384 84.352 184.504 83.808 184.504 83.2V81.232ZM205.597 70.864H207.229V78.304H217.405V70.864H219.037V88H217.405V79.696H207.229V88H205.597V70.864ZM228.063 82.36C228.047 83.24 228.183 83.976 228.471 84.568C228.759 85.16 229.151 85.632 229.647 85.984C230.159 86.336 230.759 86.592 231.447 86.752C232.135 86.896 232.871 86.968 233.655 86.968C234.103 86.968 234.591 86.904 235.119 86.776C235.647 86.648 236.135 86.448 236.583 86.176C237.047 85.888 237.431 85.528 237.735 85.096C238.039 84.648 238.191 84.112 238.191 83.488C238.191 83.008 238.079 82.592 237.855 82.24C237.647 81.888 237.367 81.592 237.015 81.352C236.679 81.112 236.303 80.92 235.887 80.776C235.471 80.616 235.063 80.488 234.663 80.392L230.847 79.456C230.351 79.328 229.863 79.168 229.383 78.976C228.919 78.784 228.511 78.528 228.159 78.208C227.807 77.888 227.519 77.496 227.295 77.032C227.087 76.568 226.983 76 226.983 75.328C226.983 74.912 227.063 74.424 227.223 73.864C227.383 73.304 227.679 72.776 228.111 72.28C228.559 71.784 229.167 71.368 229.935 71.032C230.703 70.68 231.687 70.504 232.887 70.504C233.735 70.504 234.543 70.616 235.311 70.84C236.079 71.064 236.751 71.4 237.327 71.848C237.903 72.296 238.359 72.856 238.695 73.528C239.047 74.184 239.223 74.952 239.223 75.832H237.591C237.559 75.176 237.407 74.608 237.135 74.128C236.879 73.632 236.535 73.224 236.103 72.904C235.687 72.568 235.199 72.32 234.639 72.16C234.095 71.984 233.519 71.896 232.911 71.896C232.351 71.896 231.807 71.96 231.279 72.088C230.767 72.2 230.311 72.392 229.911 72.664C229.527 72.92 229.215 73.264 228.975 73.696C228.735 74.128 228.615 74.664 228.615 75.304C228.615 75.704 228.679 76.056 228.807 76.36C228.951 76.648 229.143 76.896 229.383 77.104C229.623 77.312 229.895 77.48 230.199 77.608C230.519 77.736 230.855 77.84 231.207 77.92L235.383 78.952C235.991 79.112 236.559 79.312 237.087 79.552C237.631 79.776 238.103 80.064 238.503 80.416C238.919 80.752 239.239 81.168 239.463 81.664C239.703 82.16 239.823 82.76 239.823 83.464C239.823 83.656 239.799 83.912 239.751 84.232C239.719 84.552 239.623 84.896 239.463 85.264C239.319 85.616 239.103 85.976 238.815 86.344C238.543 86.712 238.159 87.048 237.663 87.352C237.183 87.64 236.583 87.872 235.863 88.048C235.143 88.24 234.279 88.336 233.271 88.336C232.263 88.336 231.327 88.224 230.463 88C229.599 87.76 228.863 87.4 228.255 86.92C227.647 86.44 227.175 85.824 226.839 85.072C226.519 84.32 226.383 83.416 226.431 82.36H228.063ZM261.852 88H260.676L260.46 84.88H260.412C260.124 85.488 259.764 86.016 259.332 86.464C258.916 86.896 258.452 87.256 257.94 87.544C257.428 87.816 256.876 88.016 256.284 88.144C255.708 88.272 255.108 88.336 254.484 88.336C253.14 88.336 251.956 88.096 250.932 87.616C249.924 87.12 249.084 86.464 248.412 85.648C247.74 84.832 247.236 83.888 246.9 82.816C246.564 81.744 246.396 80.616 246.396 79.432C246.396 78.248 246.564 77.12 246.9 76.048C247.236 74.976 247.74 74.032 248.412 73.216C249.084 72.384 249.924 71.728 250.932 71.248C251.956 70.752 253.14 70.504 254.484 70.504C255.38 70.504 256.228 70.624 257.028 70.864C257.828 71.104 258.54 71.464 259.164 71.944C259.788 72.424 260.316 73.016 260.748 73.72C261.18 74.424 261.476 75.248 261.636 76.192H260.004C259.956 75.696 259.788 75.2 259.5 74.704C259.228 74.192 258.852 73.728 258.372 73.312C257.908 72.896 257.348 72.56 256.692 72.304C256.036 72.032 255.3 71.896 254.484 71.896C253.348 71.896 252.372 72.112 251.556 72.544C250.74 72.976 250.068 73.552 249.54 74.272C249.028 74.976 248.644 75.776 248.388 76.672C248.148 77.568 248.028 78.488 248.028 79.432C248.028 80.36 248.148 81.28 248.388 82.192C248.644 83.088 249.028 83.896 249.54 84.616C250.068 85.32 250.74 85.888 251.556 86.32C252.372 86.752 253.348 86.968 254.484 86.968C255.428 86.968 256.268 86.816 257.004 86.512C257.756 86.192 258.388 85.752 258.9 85.192C259.412 84.632 259.796 83.968 260.052 83.2C260.308 82.432 260.428 81.592 260.412 80.68H254.58V79.288H261.852V88ZM283.705 81.28H290.449L287.137 72.496L283.705 81.28ZM286.297 70.864H288.121L294.841 88H293.089L291.001 82.672H283.201L281.137 88H279.409L286.297 70.864ZM302.83 79.264H308.446C309.582 79.264 310.502 78.976 311.206 78.4C311.91 77.824 312.262 76.944 312.262 75.76C312.262 74.576 311.91 73.696 311.206 73.12C310.502 72.544 309.582 72.256 308.446 72.256H302.83V79.264ZM301.198 70.864H308.806C309.574 70.864 310.27 70.976 310.894 71.2C311.518 71.408 312.054 71.728 312.502 72.16C312.95 72.576 313.294 73.088 313.534 73.696C313.774 74.304 313.894 74.992 313.894 75.76C313.894 76.528 313.774 77.216 313.534 77.824C313.294 78.432 312.95 78.952 312.502 79.384C312.054 79.8 311.518 80.12 310.894 80.344C310.27 80.552 309.574 80.656 308.806 80.656H302.83V88H301.198V70.864ZM322.747 79.264H328.363C329.499 79.264 330.419 78.976 331.123 78.4C331.827 77.824 332.179 76.944 332.179 75.76C332.179 74.576 331.827 73.696 331.123 73.12C330.419 72.544 329.499 72.256 328.363 72.256H322.747V79.264ZM321.115 70.864H328.723C329.491 70.864 330.187 70.976 330.811 71.2C331.435 71.408 331.971 71.728 332.419 72.16C332.867 72.576 333.211 73.088 333.451 73.696C333.691 74.304 333.811 74.992 333.811 75.76C333.811 76.528 333.691 77.216 333.451 77.824C333.211 78.432 332.867 78.952 332.419 79.384C331.971 79.8 331.435 80.12 330.811 80.344C330.187 80.552 329.491 80.656 328.723 80.656H322.747V88H321.115V70.864Z" fill="#B7E4C7"/>
<rect x="221.144" y="15" width="16" height="11" fill="white"/>
<path d="M226.692 7.92705C226.992 7.00574 228.295 7.00574 228.595 7.92705L230.225 12.9463C230.359 13.3583 230.743 13.6373 231.177 13.6373H236.454C237.423 13.6373 237.826 14.8769 237.042 15.4463L232.772 18.5484C232.422 18.803 232.275 19.2544 232.409 19.6664L234.04 24.6857C234.339 25.607 233.285 26.3731 232.501 25.8037L228.231 22.7016C227.881 22.447 227.406 22.447 227.056 22.7016L222.786 25.8037C222.002 26.3731 220.948 25.607 221.247 24.6857L222.878 19.6664C223.012 19.2544 222.865 18.803 222.515 18.5484L218.245 15.4463C217.462 14.8769 217.864 13.6373 218.833 13.6373H224.111C224.544 13.6373 224.928 13.3583 225.062 12.9463L226.692 7.92705Z" fill="#2D6A4F"/>
<path d="M-3.34406e-05 71.423C4.09569 75.8077 8.19142 80.1923 12.2871 84.577C13.7634 82.993 15.3698 81.5591 17.1362 80.2511C53.427 58.2749 109.73 76.2284 156.334 63.2074C158.965 62.5483 161.564 61.8161 164.144 61C161.49 61.5255 158.834 61.9623 156.164 62.3236C107.512 70.7896 61.6243 43.6434 7.92321 65.8452C5.14606 67.4429 2.49336 69.2989 -3.34406e-05 71.423Z" fill="#B7E4C7"/>
</svg>
