<svg width="105" height="139" viewBox="0 0 105 139" fill="none" xmlns="http://www.w3.org/2000/svg">
<path d="M33.8877 6.00541C32.9324 1.25694 38.6115 -1.93981 42.1754 1.34028L73.7019 30.3558C75.2958 31.8227 77.6529 32.0965 79.5405 31.034L116.878 10.0168C121.099 7.64091 125.894 12.0542 123.876 16.4574L106.023 55.4071C105.12 57.3763 105.588 59.7026 107.182 61.1695L138.709 90.1851C142.273 93.4652 139.557 99.3895 134.746 98.8307L92.1854 93.8874C90.0337 93.6375 87.9658 94.8015 87.0633 96.7706L69.21 135.72C67.1918 140.124 60.7183 139.372 59.763 134.623L51.3124 92.6183C50.8852 90.4947 49.1392 88.8877 46.9875 88.6378L4.42711 83.6945C-0.384159 83.1357 -1.66949 76.7467 2.55138 74.3708L39.889 53.3536C41.7767 52.2911 42.7654 50.1339 42.3382 48.0103L33.8877 6.00541Z" fill="#D8F3DC"/>
</svg>
