<svg width="218" height="186" viewBox="0 0 218 186" fill="none" xmlns="http://www.w3.org/2000/svg">
<path d="M151.692 1.52881C156.047 -2.32091 162.783 1.65082 161.523 7.32491L144.778 82.7232C144.214 85.2607 145.349 87.8725 147.588 89.1927L214.121 128.418C219.128 131.37 217.433 139.004 211.647 139.559L134.764 146.933C132.177 147.181 130.044 149.067 129.48 151.604L112.735 227.003C111.474 232.677 103.69 233.423 101.374 228.092L70.6034 157.251C69.5678 154.867 67.1148 153.421 64.5273 153.669L-12.3553 161.042C-18.1411 161.597 -21.2568 154.424 -16.9021 150.575L40.9631 99.4187C42.9106 97.6971 43.5279 94.9173 42.4923 92.5331L11.7216 21.692C9.40596 16.3608 15.2651 11.1811 20.2721 14.1329L86.8055 53.358C89.0447 54.6781 91.8792 54.4063 93.8267 52.6846L151.692 1.52881Z" fill="url(#paint0_linear_90_127)" fill-opacity="0.25"/>
<defs>
<linearGradient id="paint0_linear_90_127" x1="162.029" y1="13.7505" x2="48.5947" y2="108.147" gradientUnits="userSpaceOnUse">
<stop stop-color="#95D5B2" stop-opacity="0.1"/>
<stop offset="1" stop-color="#95D5B2"/>
</linearGradient>
</defs>
</svg>
