<svg width="195" height="179" viewBox="0 0 195 179" fill="none" xmlns="http://www.w3.org/2000/svg">
<path d="M31.0953 6.69357C30.4413 0.918145 37.5598 -2.32003 41.4836 1.96797L93.439 58.7456C95.1938 60.6632 97.9838 61.2329 100.35 60.1566L170.404 28.2893C175.694 25.8826 180.974 31.6521 178.108 36.7089L140.165 103.667C138.883 105.928 139.203 108.758 140.958 110.675L192.914 167.453C196.837 171.741 192.982 178.545 187.287 177.382L111.881 161.987C109.334 161.467 106.742 162.646 105.461 164.907L67.517 231.865C64.6514 236.922 56.9891 235.357 56.3351 229.582L47.6753 153.109C47.3828 150.526 45.4605 148.426 42.9137 147.906L-32.4922 132.51C-38.187 131.348 -39.067 123.577 -33.7763 121.17L36.2775 89.3028C38.6436 88.2265 40.0475 85.7491 39.755 83.1662L31.0953 6.69357Z" fill="url(#paint0_linear_90_135)" fill-opacity="0.3"/>
<defs>
<linearGradient id="paint0_linear_90_135" x1="46.9869" y1="5.1946" x2="59.1698" y2="151.859" gradientUnits="userSpaceOnUse">
<stop stop-color="#95D5B2" stop-opacity="0.1"/>
<stop offset="1" stop-color="#95D5B2"/>
</linearGradient>
</defs>
</svg>
