<svg width="103" height="100" viewBox="0 0 103 100" fill="none" xmlns="http://www.w3.org/2000/svg">
<path d="M44.9945 -39.6573C48.436 -44.3413 55.8607 -41.8849 55.8296 -36.0726L55.6121 4.6232C55.5982 7.22252 57.2596 9.53518 59.7274 10.3516L98.3642 23.1342C103.882 24.9599 103.841 32.7802 98.3032 34.5467L59.532 46.9156C57.0556 47.7056 55.3695 50.0003 55.3556 52.5997L55.1381 93.2955C55.107 99.1077 47.6565 101.485 44.2653 96.7641L20.5209 63.7126C19.0043 61.6016 16.3008 60.7072 13.8244 61.4972L-24.9469 73.866C-30.4842 75.6325 -35.0471 69.2812 -31.6056 64.5972L-7.50921 31.8015C-5.97013 29.7067 -5.95491 26.8592 -7.47151 24.7481L-31.2159 -8.30335C-34.6071 -13.0238 -29.9767 -19.3261 -24.4585 -17.5004L14.1784 -4.71782C16.6462 -3.90137 19.359 -4.76683 20.8981 -6.86156L44.9945 -39.6573Z" fill="url(#paint0_linear_90_137)" fill-opacity="0.3"/>
<defs>
<linearGradient id="paint0_linear_90_137" x1="57.0426" y1="-38.8969" x2="-0.659158" y2="34.909" gradientUnits="userSpaceOnUse">
<stop stop-color="#95D5B2" stop-opacity="0.1"/>
<stop offset="1" stop-color="#95D5B2"/>
</linearGradient>
</defs>
</svg>
