<svg width="434" height="396" viewBox="0 0 434 396" fill="none" xmlns="http://www.w3.org/2000/svg">
<path d="M172.238 6.69363C171.584 0.918201 178.703 -2.32 182.627 1.968L322.465 154.786C324.22 156.703 327.01 157.273 329.376 156.197L517.927 70.4255C523.217 68.0188 528.497 73.7883 525.631 78.8452L423.505 259.063C422.224 261.324 422.544 264.154 424.299 266.071L564.138 418.889C568.061 423.177 564.206 429.981 558.511 428.818L355.555 387.381C353.008 386.861 350.416 388.04 349.135 390.302L247.009 570.519C244.143 575.576 236.481 574.012 235.827 568.236L212.519 362.409C212.227 359.826 210.304 357.726 207.758 357.206L4.8019 315.769C-0.892958 314.606 -1.77292 306.835 3.51774 304.428L192.068 218.657C194.435 217.581 195.838 215.104 195.546 212.521L172.238 6.69363Z" fill="url(#paint0_linear_90_133)" fill-opacity="0.3"/>
<defs>
<linearGradient id="paint0_linear_90_133" x1="211.573" y1="27.1768" x2="239.649" y2="365.179" gradientUnits="userSpaceOnUse">
<stop stop-color="#95D5B2" stop-opacity="0.1"/>
<stop offset="1" stop-color="#95D5B2"/>
</linearGradient>
</defs>
</svg>
