<svg width="391" height="120" viewBox="0 0 391 120" fill="none" xmlns="http://www.w3.org/2000/svg">
<path d="M319.793 -26.3962C318.837 -31.1446 324.516 -34.3414 328.08 -31.0613L359.332 -2.29849C360.926 -0.831587 363.283 -0.557808 365.171 -1.62034L402.183 -22.4544C406.404 -24.8303 411.199 -20.417 409.181 -16.0139L391.483 22.5966C390.581 24.5657 391.049 26.8921 392.643 28.359L423.895 57.1218C427.459 60.4019 424.743 66.3263 419.932 65.7675L377.742 60.8672C375.59 60.6173 373.523 61.7813 372.62 63.7504L354.922 102.361C352.904 106.764 346.431 106.012 345.475 101.264L337.098 59.6247C336.671 57.5011 334.925 55.8941 332.773 55.6442L290.584 50.744C285.772 50.1852 284.487 43.7961 288.708 41.4202L325.72 20.5861C327.608 19.5236 328.597 17.3664 328.17 15.2428L319.793 -26.3962Z" fill="#40916C"/>
<path d="M192.743 71.318C191.788 66.5696 197.467 63.3728 201.031 66.6529L219.983 84.0957C221.577 85.5626 223.934 85.8364 225.822 84.7738L248.267 72.1393C252.488 69.7634 257.284 74.1767 255.265 78.5798L244.533 101.995C243.63 103.964 244.098 106.29 245.692 107.757L264.644 125.2C268.208 128.48 265.493 134.404 260.681 133.845L235.096 130.874C232.944 130.624 230.877 131.788 229.974 133.757L219.241 157.172C217.223 161.575 210.75 160.823 209.794 156.074L204.714 130.823C204.287 128.7 202.541 127.093 200.389 126.843L174.804 123.871C169.993 123.312 168.707 116.923 172.928 114.547L195.374 101.913C197.262 100.85 198.25 98.693 197.823 96.5694L192.743 71.318Z" fill="#52B788"/>
<path d="M56.7431 -14.682C55.7878 -19.4304 61.467 -22.6272 65.0309 -19.3471L83.9831 -1.90432C85.577 -0.437418 87.9341 -0.163643 89.8217 -1.22618L112.267 -13.8607C116.488 -16.2366 121.284 -11.8233 119.265 -7.42018L108.533 15.9946C107.63 17.9637 108.098 20.2901 109.692 21.757L128.644 39.1998C132.208 42.4799 129.493 48.4042 124.681 47.8454L99.0961 44.8737C96.9445 44.6238 94.8766 45.7878 93.974 47.757L83.2415 71.1717C81.2232 75.5748 74.7497 74.823 73.7944 70.0745L68.7143 44.8231C68.2871 42.6995 66.5411 41.0926 64.3894 40.8426L38.8041 37.871C33.9928 37.3122 32.7075 30.9231 36.9284 28.5472L59.374 15.9127C61.2616 14.8501 62.2504 12.693 61.8232 10.5694L56.7431 -14.682Z" fill="#B7E4C7"/>
</svg>
